# xmcd
#
# Track frame offsets: 
#        150
#        25227
#        45664
#        69417
#        98152
#        127322
#        152012
#        176672
#        199252
#        222737
#        243195
#        253702
#        273007
#        289535
#        297732
#        307315
#        330519
#
# Disc length: 4539 seconds
#
# Revision: 8
# Processed by: cddbd v1.5.2PL0 Copyright (c) Steve Scherf et al.
# Submitted via: ExactAudioCopy v1.0b2
#
DISCID=0c11b911
DTITLE=RUSH - DIFFERENT STAGES LIVE
DYEAR=1998
DGENRE=Progressive Rock
TTITLE0=Dreamline
TTITLE1=Limelight
TTITLE2=Driven
TTITLE3=Bravado
TTITLE4=Animate
TTITLE5=Show Don't Tell
TTITLE6=The Trees
TTITLE7=Nobody's Hero
TTITLE8=Closer To The Heart
TTITLE9=2112 - Overture
TTITLE10=2112 - The Temples Of Syrinx
TTITLE11=2112 - Discovery
TTITLE12=2112 - Presentation
TTITLE13=2112 - Oracle and The Dream
TTITLE14=2112 - Soliloquy
TTITLE15=2112 - Grand Finale
TTITLE16=Enhanced CD
EXTD=
EXTT0=
EXTT1=
EXTT2=
EXTT3=
EXTT4=
EXTT5=
EXTT6=
EXTT7=
EXTT8=
EXTT9=
EXTT10=
EXTT11=
EXTT12=
EXTT13=
EXTT14=
EXTT15=
EXTT16=
PLAYORDER=
